<?xml version="1.0" encoding="UTF-8" standalone="no" ?>
<!DOCTYPE svg PUBLIC "-//W3C//DTD SVG 1.1//EN" "http://www.w3.org/Graphics/SVG/1.1/DTD/svg11.dtd">
<svg xmlns="http://www.w3.org/2000/svg" xmlns:xlink="http://www.w3.org/1999/xlink" version="1.1" width="128" height="128" viewBox="0 0 128 128" xml:space="preserve">
<desc>Created with Fabric.js 4.6.0</desc>
<defs>
</defs>
<g transform="matrix(1 0 0 1 64 64)" id="U7ptPcUO8LsWGlu13jjaJ"  >
<path style="stroke: rgb(255,255,255); stroke-width: 1; stroke-dasharray: none; stroke-linecap: butt; stroke-dashoffset: 0; stroke-linejoin: miter; stroke-miterlimit: 4; fill: rgb(0,0,0); fill-rule: nonzero; opacity: 1;" vector-effect="non-scaling-stroke"  transform=" translate(-56.66, -34.42)" d="M 0 8.13161 C 0 3.64065 3.64065 0 8.13161 0 L 105.18007999999999 0 C 109.67103999999999 0 113.31168999999998 3.64065 113.31168999999998 8.13161 L 113.31168999999998 60.699560000000005 C 113.31168999999998 65.19052 109.67103999999999 68.83117 105.18007999999999 68.83117 L 8.131609999999995 68.83117 C 3.6406499999999946 68.83117 -5.329070518200751e-15 65.19052 -5.329070518200751e-15 60.69956 z M 8.73832 55.70251 C 8.73832 58.20146 10.76412 60.227259999999994 13.263069999999999 60.227259999999994 L 69.14863 60.227259999999994 C 71.64757999999999 60.227259999999994 73.67338 58.20146 73.67338 55.70251 L 73.67338 13.128639999999997 C 73.67338 10.629689999999997 71.64757999999999 8.603889999999996 69.14863 8.603889999999996 L 13.263069999999999 8.603889999999996 C 10.764119999999998 8.603889999999996 8.738319999999998 10.629689999999997 8.738319999999998 13.128639999999997 z M 80.09949 40.24978 C 80.09949 42.13808 81.63026 43.66884 83.51855 43.66884 L 103.95317 43.66884 C 105.84147 43.66884 107.37223 42.138070000000006 107.37223 40.24978 L 107.37223 28.581400000000002 C 107.37223 26.6931 105.84146 25.16234 103.95317 25.16234 L 83.51855 25.16234 C 81.63025 25.16234 80.09949 26.69311 80.09949 28.581400000000002 z" stroke-linecap="round" />
</g>
</svg>