<?xml version="1.0" encoding="UTF-8" standalone="no" ?>
<!DOCTYPE svg PUBLIC "-//W3C//DTD SVG 1.1//EN" "http://www.w3.org/Graphics/SVG/1.1/DTD/svg11.dtd">
<svg xmlns="http://www.w3.org/2000/svg" xmlns:xlink="http://www.w3.org/1999/xlink" version="1.1" width="128" height="128" viewBox="0 0 128 128" xml:space="preserve">
<desc>Created with Fabric.js 4.6.0</desc>
<defs>
</defs>
<g transform="matrix(3.49 0 0 2.12 64 64)" id="LgggK86oAazNMlj3I2vkr"  >
<path style="stroke: rgb(255,255,255); stroke-width: 1; stroke-dasharray: none; stroke-linecap: butt; stroke-dashoffset: 0; stroke-linejoin: miter; stroke-miterlimit: 4; fill: rgb(0,0,0); fill-rule: nonzero; opacity: 1;" vector-effect="non-scaling-stroke"  transform=" translate(0, 0)" d="M -16.23377 -12.39499 C -16.23377 -14.51509 -15.19149 -16.23377 -13.90576 -16.23377 L 13.90576 -16.23377 L 13.90576 -16.23377 C 15.19148 -16.23377 16.23377 -14.51509 16.23377 -12.39499 L 16.23377 12.39498 L 16.23377 12.39498 C 16.23377 14.515080000000001 15.19149 16.23376 13.90576 16.23376 L -13.90576 16.23376 L -13.90576 16.23376 C -15.19148 16.23376 -16.23377 14.515080000000001 -16.23377 12.39498 z" stroke-linecap="round" />
</g>
<g transform="matrix(2 0 0 1.59 48.55 64)" id="AkmEuf1GNIOZJZgaQX6RX"  >
<path style="stroke: rgb(255,255,255); stroke-width: 0; stroke-dasharray: none; stroke-linecap: butt; stroke-dashoffset: 0; stroke-linejoin: miter; stroke-miterlimit: 4; fill: rgb(74,74,74); fill-rule: nonzero; opacity: 1;" vector-effect="non-scaling-stroke"  transform=" translate(0, 0)" d="M -16.23377 -13.38806 C -16.23377 -14.9597 -15.22251 -16.23377 -13.97505 -16.23377 L 13.97505 -16.23377 L 13.97505 -16.23377 C 15.22251 -16.23377 16.23377 -14.9597 16.23377 -13.38806 L 16.23377 13.38806 L 16.23377 13.38806 C 16.23377 14.9597 15.22251 16.23377 13.97505 16.23377 L -13.97505 16.23377 L -13.97505 16.23377 C -15.22251 16.23377 -16.23377 14.9597 -16.23377 13.38806 z" stroke-linecap="round" />
</g>
<g transform="matrix(0.84 0 0 0.57 101.08 64)" id="Hbm9NrxTy-25pqTy17zfM"  >
<path style="stroke: rgb(255,255,255); stroke-width: 0; stroke-dasharray: none; stroke-linecap: butt; stroke-dashoffset: 0; stroke-linejoin: miter; stroke-miterlimit: 4; fill: rgb(184,184,184); fill-rule: nonzero; opacity: 1;" vector-effect="non-scaling-stroke"  transform=" translate(0, 0)" d="M -16.23377 -10.19239 C -16.23377 -13.52895 -14.41377 -16.23376 -12.16868 -16.23376 L 12.16867 -16.23376 L 12.16867 -16.23376 C 14.41376 -16.23376 16.23376 -13.52895 16.23376 -10.19239 L 16.23376 10.1924 L 16.23376 10.1924 C 16.23376 13.52896 14.41376 16.23377 12.16867 16.23377 L -12.16868 16.23377 L -12.16868 16.23377 C -14.41377 16.23377 -16.23377 13.52896 -16.23377 10.1924 z" stroke-linecap="round" />
</g>
<g transform="matrix(0.18 0 0 0.18 48.55 64)" id="rcPHG1Phm1859GAzvT59Z"  >
<path style="stroke: none; stroke-width: 1; stroke-dasharray: none; stroke-linecap: butt; stroke-dashoffset: 0; stroke-linejoin: miter; stroke-miterlimit: 4; fill: rgb(64,156,212); fill-rule: nonzero; opacity: 1;" vector-effect="non-scaling-stroke"  transform=" translate(0, 0)" d="M -0.0005 132.282 C 51.2395 132.282 92.9305 90.60100000000001 92.9305 39.364000000000004 C 92.9305 -10.815999999999995 5.836500000000001 -124.70499999999998 2.1274999999999977 -129.527 L -0.0005000000000023874 -132.28199999999998 L -2.1285000000000025 -129.509 C -5.832500000000003 -124.69599999999998 -92.93050000000001 -10.798999999999992 -92.93050000000001 39.37300000000002 C -92.9295 90.60100000000003 -51.23950000000001 132.28200000000004 -0.0005000000000023874 132.28200000000004 z" stroke-linecap="round" />
</g>
</svg>